<svg width="96" height="96" viewBox="0 0 96 96" fill="none" xmlns="http://www.w3.org/2000/svg">
<g clip-path="url(#clip0_20_292)">
<path d="M64.6443 23.0649H84.6075V84.4899H64.6443V23.0649Z" fill="black"/>
<path d="M17.0405 93.7031C14.0032 93.7034 11.034 92.8029 8.50842 91.1156C5.98286 89.4283 4.01438 87.0299 2.85193 84.2238C1.68948 81.4177 1.38526 78.3299 1.97776 75.3509C2.57026 72.3719 4.03285 69.6356 6.18058 67.4878C8.3283 65.3401 11.0647 63.8775 14.0437 63.285C17.0227 62.6925 20.1105 62.9967 22.9166 64.1592C25.7227 65.3216 28.121 67.2901 29.8083 69.8157C31.4956 72.3412 32.3961 75.3104 32.3959 78.3478C32.391 82.4188 30.7717 86.3216 27.893 89.2003C25.0144 92.0789 21.1115 93.6983 17.0405 93.7031ZM17.0405 69.1334C15.2183 69.1334 13.437 69.6737 11.9219 70.6861C10.4068 71.6984 9.22596 73.1373 8.52863 74.8208C7.83131 76.5043 7.64886 78.3568 8.00435 80.144C8.35984 81.9311 9.23732 83.5728 10.5258 84.8613C11.8143 86.1498 13.4559 87.0272 15.2431 87.3827C17.0303 87.7382 18.8828 87.5558 20.5663 86.8584C22.2498 86.1611 23.6887 84.9802 24.701 83.4651C25.7134 81.95 26.2537 80.1688 26.2537 78.3466C26.2508 75.904 25.2792 73.5622 23.552 71.835C21.8248 70.1079 19.4831 69.1363 17.0405 69.1334Z" fill="black"/>
<path d="M33.2771 12.3161C32.1668 8.39394 29.675 5.00588 26.2617 2.77749C22.8484 0.549088 18.7441 -0.36917 14.7067 0.192247C10.6692 0.753664 6.97117 2.75684 4.29533 5.83194C1.6195 8.90704 0.146549 12.8464 0.148439 16.9227V79.882H0.226559C0.61301 84.0761 2.55087 87.9749 5.66078 90.8152C8.7707 93.6556 12.8287 95.2329 17.0405 95.2386H95.3564V12.3161H33.2771ZM75.3884 73.7411C74.9811 73.7411 74.5905 73.5793 74.3026 73.2914C74.0146 73.0034 73.8528 72.6128 73.8528 72.2056C73.8528 71.7983 74.0146 71.4078 74.3026 71.1198C74.5905 70.8318 74.9811 70.6701 75.3884 70.6701C76.6101 70.6701 77.7818 70.1847 78.6457 69.3208C79.5096 68.4569 79.995 67.2852 79.995 66.0635C79.995 64.8417 79.5096 63.67 78.6457 62.8061C77.7818 61.9422 76.6101 61.4569 75.3884 61.4569C74.9811 61.4569 74.5905 61.2951 74.3026 61.0071C74.0146 60.7191 73.8528 60.3286 73.8528 59.9213C73.8528 59.5141 74.0146 59.1235 74.3026 58.8355C74.5905 58.5476 74.9811 58.3858 75.3884 58.3858C76.6101 58.3858 77.7818 57.9005 78.6457 57.0365C79.5096 56.1726 79.995 55.0009 79.995 53.7792C79.995 52.5574 79.5096 51.3857 78.6457 50.5218C77.7818 49.6579 76.6101 49.1726 75.3884 49.1726C74.9811 49.1726 74.5905 49.0108 74.3026 48.7228C74.0146 48.4349 73.8528 48.0443 73.8528 47.6371C73.8528 47.2298 74.0146 46.8392 74.3026 46.5513C74.5905 46.2633 74.9811 46.1015 75.3884 46.1015C76.6101 46.1015 77.7818 45.6162 78.6457 44.7523C79.5096 43.8884 79.995 42.7167 79.995 41.4949C79.995 40.2732 79.5096 39.1015 78.6457 38.2376C77.7818 37.3737 76.6101 36.8883 75.3884 36.8883C74.9811 36.8883 74.5905 36.7265 74.3026 36.4386C74.0146 36.1506 73.8528 35.76 73.8528 35.3528C73.8528 34.9455 74.0146 34.555 74.3026 34.267C74.5905 33.979 74.9811 33.8173 75.3884 33.8173C76.6101 33.8173 77.7818 33.3319 78.6457 32.468C79.5096 31.6041 79.995 30.4324 79.995 29.2107C79.995 27.9889 79.5096 26.8172 78.6457 25.9533C77.7818 25.0894 76.6101 24.6041 75.3884 24.6041H83.066V82.9531H75.3884C76.6101 82.9531 77.7818 82.4678 78.6457 81.6039C79.5096 80.74 79.995 79.5683 79.995 78.3465C79.995 77.1248 79.5096 75.953 78.6457 75.0891C77.7818 74.2252 76.6101 73.7411 75.3884 73.7411ZM71.0662 24.6004C71.3819 25.4961 71.967 26.2721 72.7413 26.8219C73.5156 27.3718 74.4411 27.6685 75.3908 27.6715C75.798 27.6715 76.1886 27.8332 76.4766 28.1212C76.7645 28.4092 76.9263 28.7997 76.9263 29.207C76.9263 29.6142 76.7645 30.0048 76.4766 30.2928C76.1886 30.5807 75.798 30.7425 75.3908 30.7425C74.1691 30.7425 72.9973 31.2279 72.1334 32.0918C71.2695 32.9557 70.7842 34.1274 70.7842 35.3491C70.7842 36.5709 71.2695 37.7426 72.1334 38.6065C72.9973 39.4704 74.1691 39.9557 75.3908 39.9557C75.798 39.9557 76.1886 40.1175 76.4766 40.4055C76.7645 40.6934 76.9263 41.084 76.9263 41.4913C76.9263 41.8985 76.7645 42.2891 76.4766 42.577C76.1886 42.865 75.798 43.0268 75.3908 43.0268C74.1691 43.0268 72.9973 43.5121 72.1334 44.376C71.2695 45.2399 70.7842 46.4116 70.7842 47.6334C70.7842 48.8551 71.2695 50.0268 72.1334 50.8908C72.9973 51.7547 74.1691 52.24 75.3908 52.24C75.798 52.24 76.1886 52.4018 76.4766 52.6897C76.7645 52.9777 76.9263 53.3683 76.9263 53.7755C76.9263 54.1828 76.7645 54.5733 76.4766 54.8613C76.1886 55.1493 75.798 55.3111 75.3908 55.3111C74.1691 55.3111 72.9973 55.7964 72.1334 56.6603C71.2695 57.5242 70.7842 58.6959 70.7842 59.9177C70.7842 61.1394 71.2695 62.3111 72.1334 63.175C72.9973 64.0389 74.1691 64.5243 75.3908 64.5243C75.798 64.5243 76.1886 64.686 76.4766 64.974C76.7645 65.262 76.9263 65.6525 76.9263 66.0598C76.9263 66.467 76.7645 66.8576 76.4766 67.1456C76.1886 67.4335 75.798 67.5953 75.3908 67.5953C74.1691 67.5953 72.9973 68.0807 72.1334 68.9446C71.2695 69.8085 70.7842 70.9802 70.7842 72.2019C70.7842 73.4237 71.2695 74.5954 72.1334 75.4593C72.9973 76.3232 74.1691 76.8085 75.3908 76.8085C75.798 76.8085 76.1886 76.9703 76.4766 77.2583C76.7645 77.5462 76.9263 77.9368 76.9263 78.3441C76.9263 78.7513 76.7645 79.1419 76.4766 79.4298C76.1886 79.7178 75.798 79.8796 75.3908 79.8796C74.4408 79.8827 73.5151 80.1798 72.7408 80.7301C71.9665 81.2805 71.3815 82.057 71.0662 82.9531H33.2771C33.7073 81.4552 33.9275 79.9049 33.9314 78.3465V24.6004H71.0662ZM3.21951 16.9227C3.25374 13.2798 4.7249 9.79776 7.31301 7.23386C9.90112 4.66995 13.3969 3.23159 17.0399 3.23159C20.683 3.23159 24.1787 4.66995 26.7668 7.23386C29.3549 9.79776 30.8261 13.2798 30.8603 16.9227V68.6646C29.3074 66.4389 27.24 64.6211 24.8338 63.366C22.4276 62.1108 19.7538 61.4554 17.0399 61.4554C14.326 61.4554 11.6523 62.1108 9.24607 63.366C6.83986 64.6211 4.7724 66.4389 3.21951 68.6646V16.9227ZM3.21951 78.3477C3.21926 75.6141 4.02965 72.9419 5.54817 70.6688C7.0667 68.3958 9.22517 66.6242 11.7506 65.5779C14.276 64.5316 17.055 64.2578 19.7361 64.7909C22.4172 65.3241 24.88 66.6403 26.813 68.5731C28.7461 70.506 30.0625 72.9687 30.5959 75.6497C31.1293 78.3308 30.8556 81.1098 29.8096 83.6353C28.7636 86.1608 26.9921 88.3195 24.7192 89.8382C22.4463 91.3569 19.7741 92.1675 17.0405 92.1675C13.3763 92.1633 9.86326 90.7058 7.27223 88.1148C4.68119 85.5238 3.22371 82.012 3.21951 78.3477ZM92.2853 92.1675H26.7224C28.9757 90.5837 30.8101 88.4758 32.0675 86.0254H86.1407V21.5293H33.9314V16.9227C33.9314 16.404 33.8997 15.8937 33.8533 15.3872H92.2853V92.1675Z" fill="white"/>
<path d="M9.36153 16.9215C9.36476 14.8863 10.1747 12.9353 11.6138 11.4962C13.053 10.057 15.0039 9.24709 17.0392 9.24386V6.17279C14.1895 6.17602 11.4573 7.30951 9.44227 9.32459C7.42719 11.3397 6.2937 14.0718 6.29047 16.9215V36.8847H9.36153V16.9215Z" fill="white"/>
<path d="M27.789 78.3465C27.789 76.2206 27.1586 74.1425 25.9775 72.3748C24.7964 70.6072 23.1177 69.2295 21.1536 68.416C19.1895 67.6024 17.0283 67.3896 14.9433 67.8043C12.8582 68.2191 10.943 69.2428 9.43974 70.746C7.9365 72.2492 6.91278 74.1645 6.49804 76.2495C6.0833 78.3346 6.29616 80.4958 7.10971 82.4599C7.92325 84.424 9.30095 86.1027 11.0686 87.2838C12.8362 88.4648 14.9143 89.0952 17.0402 89.0952C19.8899 89.0917 22.6218 87.9581 24.6368 85.9431C26.6518 83.9281 27.7854 81.1962 27.789 78.3465ZM9.35769 78.3465C9.35769 76.828 9.80798 75.3436 10.6516 74.081C11.4952 72.8184 12.6943 71.8344 14.0972 71.2533C15.5002 70.6722 17.0439 70.5201 18.5332 70.8164C20.0225 71.1126 21.3906 71.8438 22.4643 72.9176C23.538 73.9913 24.2693 75.3594 24.5655 76.8487C24.8617 78.338 24.7097 79.8817 24.1286 81.2846C23.5475 82.6875 22.5634 83.8866 21.3008 84.7303C20.0383 85.5739 18.5539 86.0242 17.0354 86.0242C15.0007 86.02 13.0507 85.2096 11.6124 83.7706C10.174 82.3316 9.36458 80.3811 9.36135 78.3465H9.35769Z" fill="white"/>
<path d="M21.6468 78.3465C21.6468 77.4354 21.3766 76.5447 20.8704 75.7872C20.3643 75.0296 19.6448 74.4392 18.8031 74.0905C17.9613 73.7419 17.0351 73.6506 16.1415 73.8284C15.2479 74.0061 14.4271 74.4449 13.7828 75.0891C13.1386 75.7334 12.6999 76.5542 12.5221 77.4478C12.3444 78.3414 12.4356 79.2676 12.7843 80.1093C13.1329 80.9511 13.7234 81.6705 14.4809 82.1767C15.2385 82.6829 16.1291 82.9531 17.0402 82.9531C18.2614 82.9515 19.4322 82.4656 20.2958 81.602C21.1593 80.7385 21.6452 79.5677 21.6468 78.3465ZM15.5047 78.3465C15.5047 78.0428 15.5947 77.7459 15.7634 77.4934C15.9322 77.2409 16.172 77.044 16.4526 76.9278C16.7332 76.8116 17.0419 76.7812 17.3398 76.8404C17.6376 76.8997 17.9112 77.0459 18.126 77.2607C18.3407 77.4754 18.487 77.749 18.5462 78.0469C18.6055 78.3448 18.5751 78.6535 18.4588 78.9341C18.3426 79.2147 18.1458 79.4545 17.8933 79.6232C17.6408 79.7919 17.3439 79.882 17.0402 79.882C16.633 79.8817 16.2427 79.7198 15.9548 79.4319C15.6669 79.144 15.505 78.7536 15.5047 78.3465Z" fill="white"/>
<path d="M6.29047 39.9569H9.36153V43.028H6.29047V39.9569Z" fill="white"/>
</g>
<defs>
<clipPath id="clip0_20_292">
<rect width="95.208" height="95.208" fill="white" transform="translate(0.148438 0.0307617)"/>
</clipPath>
</defs>
</svg>
