<svg width="68" height="96" viewBox="0 0 68 96" fill="none" xmlns="http://www.w3.org/2000/svg">
<g clip-path="url(#clip0_20_301)">
<path d="M27.7834 6.17273V23.0648H30.8348V18.4582H36.9375V23.0648H39.9889V6.17273C39.9889 4.54374 39.346 2.98146 38.2015 1.82959C37.057 0.677713 35.5047 0.0305977 33.8862 0.0305977C32.2676 0.0305977 30.7154 0.677713 29.5709 1.82959C28.4264 2.98146 27.7834 4.54374 27.7834 6.17273ZM36.9375 6.17273V15.3872H30.8348V6.17395C30.8348 5.35945 31.1563 4.57832 31.7285 4.00238C32.3008 3.42644 33.0769 3.10288 33.8862 3.10288C34.6954 3.10288 35.4716 3.42644 36.0438 4.00238C36.6161 4.57832 36.9375 5.35823 36.9375 6.17273Z" fill="white"/>
<path d="M30.8348 72.2043H27.7834V89.0964C27.7834 90.7255 28.4265 92.288 29.5711 93.44C30.7157 94.592 32.2681 95.2391 33.8868 95.2391C35.5055 95.2391 37.0579 94.592 38.2025 93.44C39.3471 92.288 39.9901 90.7255 39.9901 89.0964V72.2043H36.9375V76.8072H30.8348V72.2043ZM36.9375 79.882V89.0964C36.9375 89.9109 36.6161 90.692 36.0438 91.268C35.4716 91.8439 34.6954 92.1675 33.8862 92.1675C33.0769 92.1675 32.3008 91.8439 31.7285 91.268C31.1563 90.692 30.8348 89.9109 30.8348 89.0964V79.8832L36.9375 79.882Z" fill="white"/>
<path d="M20.1549 26.1359V32.278H47.6185V26.1359C47.6169 24.9146 47.1341 23.7439 46.2761 22.8803C45.4181 22.0168 44.2548 21.5309 43.0414 21.5293H24.732C23.5186 21.5309 22.3553 22.0168 21.4973 22.8803C20.6393 23.7439 20.1565 24.9146 20.1549 26.1359Z" fill="#FF0000"/>
<path d="M20.1549 62.9911V69.1332C20.1565 70.3545 20.6393 71.5252 21.4973 72.3888C22.3553 73.2523 23.5186 73.7382 24.732 73.7398H43.0451C44.2585 73.7382 45.4217 73.2523 46.2798 72.3888C47.1378 71.5252 47.6205 70.3545 47.6221 69.1332V62.9911H20.1549Z" fill="#FF0000"/>
<path d="M16.0268 42.5862L12.9756 39.5153L15.1332 37.3437L18.1845 40.4146L16.0268 42.5862Z" fill="black"/>
<path d="M25.1807 42.5886L22.1294 39.5176L24.2871 37.3461L27.3383 40.417L25.1807 42.5886Z" fill="white"/>
<path d="M34.335 42.5886L31.2838 39.5176L33.4414 37.3461L36.4927 40.417L34.335 42.5886Z" fill="black"/>
<path d="M43.4879 42.5897L40.4367 39.5187L42.5943 37.3472L45.6455 40.4181L43.4879 42.5897Z" fill="black"/>
<path d="M52.6407 42.5911L49.5895 39.5201L51.7472 37.3486L54.7984 40.4195L52.6407 42.5911Z" fill="white"/>
<path d="M15.1329 57.9415L12.9753 55.7699L16.0265 52.699L18.1842 54.8705L15.1329 57.9415Z" fill="black"/>
<path d="M24.2858 57.9426L22.1281 55.771L25.1794 52.7001L27.337 54.8716L24.2858 57.9426Z" fill="white"/>
<path d="M33.4399 57.9426L31.2823 55.771L34.3335 52.7001L36.4911 54.8716L33.4399 57.9426Z" fill="black"/>
<path d="M42.593 57.944L40.4354 55.7724L43.4866 52.7015L45.6442 54.873L42.593 57.944Z" fill="black"/>
<path d="M51.7459 57.9463L49.5882 55.7747L52.6395 52.7038L54.7971 54.8754L51.7459 57.9463Z" fill="white"/>
<path d="M0.320051 39.9569C0.320939 41.4782 0.696222 42.9756 1.41238 44.3153C2.12853 45.6551 3.16326 46.7954 4.42412 47.6345C2.78303 48.7264 1.53527 50.3215 0.865871 52.1834C0.196473 54.0452 0.141082 56.0746 0.707911 57.9706C1.27474 59.8666 2.43361 61.5283 4.01266 62.7092C5.59172 63.8901 7.50689 64.5274 9.47416 64.5266H58.2985C60.2658 64.5274 62.181 63.8901 63.76 62.7092C65.3391 61.5283 66.498 59.8666 67.0648 57.9706C67.6316 56.0746 67.5762 54.0452 66.9068 52.1834C66.2374 50.3215 64.9897 48.7264 63.3486 47.6345C64.9897 46.5426 66.2374 44.9475 66.9068 43.0857C67.5762 41.2238 67.6316 39.1944 67.0648 37.2984C66.498 35.4024 65.3391 33.7408 63.76 32.5598C62.181 31.3789 60.2658 30.7416 58.2985 30.7424H9.47416C7.04692 30.745 4.71984 31.7167 3.00364 33.4442C1.28743 35.1717 0.322298 37.5139 0.320051 39.9569ZM64.4025 55.3134C64.4009 56.9419 63.7574 58.5032 62.6133 59.6548C61.4691 60.8063 59.9178 61.4539 58.2997 61.4555H9.47416C7.85546 61.4555 6.30305 60.8084 5.15845 59.6564C4.01385 58.5044 3.37082 56.942 3.37082 55.3128C3.37082 53.6836 4.01385 52.1212 5.15845 50.9692C6.30305 49.8172 7.85546 49.1701 9.47416 49.1701H58.2985C59.917 49.1713 61.4688 49.819 62.6133 50.9708C63.7577 52.1227 64.4012 53.6845 64.4025 55.3134ZM58.2997 33.8147C59.9185 33.8147 61.4709 34.4619 62.6155 35.6139C63.7601 36.7659 64.4031 38.3283 64.4031 39.9575C64.4031 41.5866 63.7601 43.1491 62.6155 44.301C61.4709 45.453 59.9185 46.1002 58.2997 46.1002H9.47416C7.85546 46.1002 6.30305 45.453 5.15845 44.301C4.01385 43.1491 3.37082 41.5866 3.37082 39.9575C3.37082 38.3283 4.01385 36.7659 5.15845 35.6139C6.30305 34.4619 7.85546 33.8147 9.47416 33.8147H58.2997Z" fill="white"/>
</g>
<defs>
<clipPath id="clip0_20_301">
<rect width="67.1338" height="95.208" fill="white" transform="translate(0.319824 0.0307617)"/>
</clipPath>
</defs>
</svg>
