<svg width="96" height="96" viewBox="0 0 96 96" fill="none" xmlns="http://www.w3.org/2000/svg">
<g clip-path="url(#clip0_20_320)">
<path d="M44.2569 21.5294H36.5976C35.4886 20.094 34.065 18.9322 32.4364 18.1336C30.8078 17.3349 29.0176 16.9207 27.2037 16.9228H26.5934C24.557 16.9228 22.604 17.7318 21.164 19.1717C19.7241 20.6117 18.9151 22.5647 18.9151 24.6011C18.9151 26.6375 19.7241 28.5905 21.164 30.0304C22.604 31.4704 24.557 32.2794 26.5934 32.2794H30.0514L37.4056 57.2824L40.351 56.4158L33.2555 32.2794H36.1972L43.5514 57.2824L46.4968 56.4158L39.3989 32.2794H44.2581C45.6835 32.2794 47.0505 31.7131 48.0584 30.7052C49.0663 29.6973 49.6325 28.3304 49.6325 26.905C49.6325 25.4796 49.0663 24.1126 48.0584 23.1047C47.0505 22.0968 45.6835 21.5306 44.2581 21.5306L44.2569 21.5294ZM44.2569 29.2071H26.5971C25.3753 29.2071 24.2036 28.7217 23.3397 27.8578C22.4758 26.9939 21.9905 25.8222 21.9905 24.6005C21.9905 23.3787 22.4758 22.207 23.3397 21.3431C24.2036 20.4792 25.3753 19.9939 26.5971 19.9939H27.2074C28.657 19.9931 30.0843 20.3508 31.3621 21.0353C32.6399 21.7198 33.7286 22.7097 34.5311 23.9169L34.9876 24.6005H44.2545C44.8654 24.6005 45.4512 24.8431 45.8832 25.2751C46.3151 25.707 46.5578 26.2929 46.5578 26.9038C46.5578 27.5146 46.3151 28.1005 45.8832 28.5324C45.4512 28.9644 44.8654 29.2071 44.2545 29.2071H44.2569Z" fill="white"/>
<path d="M84.9499 0.0307021C83.7286 0.0323169 82.5578 0.518172 81.6943 1.38173C80.8307 2.24528 80.3449 3.41605 80.3433 4.6373V13.8505C80.3457 14.7869 80.6338 15.7003 81.169 16.4687C81.7042 17.2371 82.4611 17.8239 83.3386 18.1507C83.1269 19.9605 82.4591 21.687 81.3978 23.1682C80.3365 24.6494 78.9166 25.8369 77.271 26.6194V20.7384C77.2748 19.3262 76.9984 17.9272 76.4578 16.6226C75.9172 15.3179 75.1232 14.1334 74.1218 13.1377L73.3003 12.3162L74.3317 11.2848C75.0005 10.6142 75.4556 9.76044 75.6397 8.83139C75.8237 7.90234 75.7284 6.93959 75.3657 6.06467C75.0031 5.18974 74.3894 4.44185 73.6021 3.9154C72.8148 3.38894 71.8892 3.10752 70.9421 3.10665C69.6714 3.10999 68.4534 3.61439 67.5524 4.51036L55.6392 16.4236C54.9704 17.0942 54.5153 17.9479 54.3313 18.8769C54.1473 19.806 54.2426 20.7687 54.6052 21.6437C54.9679 22.5186 55.5816 23.2665 56.3689 23.7929C57.1562 24.3194 58.0818 24.6008 59.0289 24.6017C60.2995 24.5983 61.5175 24.0939 62.4185 23.198L65.6959 19.9206C66.2297 20.6898 66.5178 21.6026 66.5222 22.5388V56.8479H69.5933V30.7426H72.6692C73.1824 30.7412 73.695 30.7111 74.2048 30.6523V59.9202H77.2759V29.9358C79.762 29.0545 81.9445 27.4811 83.5663 25.401C85.1882 23.3209 86.1819 20.8206 86.4305 18.1947C87.3415 17.8891 88.134 17.3057 88.6964 16.5265C89.2589 15.7473 89.563 14.8115 89.5662 13.8505V4.6373C89.5646 3.41436 89.0774 2.24211 88.2117 1.37828C87.3461 0.514444 86.1728 0.0297302 84.9499 0.0307021ZM60.2483 21.0253C60.0072 21.266 59.7001 21.4298 59.3659 21.496C59.0317 21.5622 58.6854 21.5278 58.3708 21.3971C58.0561 21.2665 57.7873 21.0454 57.5983 20.762C57.4093 20.4785 57.3087 20.1454 57.309 19.8047C57.3079 19.5779 57.3519 19.3532 57.4384 19.1437C57.525 18.9341 57.6523 18.7439 57.8131 18.584L69.7263 6.67085C69.9674 6.43012 70.2745 6.2663 70.6087 6.20011C70.9429 6.13391 71.2892 6.16833 71.6038 6.29899C71.9185 6.42965 72.1873 6.6507 72.3763 6.93416C72.5653 7.21762 72.666 7.55077 72.6656 7.89146C72.6667 8.11819 72.6228 8.34288 72.5362 8.55243C72.4497 8.76199 72.3223 8.95224 72.1615 9.11208L60.2483 21.0253ZM72.6692 27.6715H69.5945V22.5376C69.5873 20.7899 68.9783 19.098 67.8698 17.7467L71.1301 14.4864L71.9515 15.3091C72.6668 16.0202 73.2339 16.8661 73.6201 17.7978C74.0062 18.7296 74.2037 19.7286 74.2011 20.7372V27.5482C73.6941 27.6257 73.1822 27.6669 72.6692 27.6715ZM86.4854 13.8517C86.4854 14.259 86.3236 14.6495 86.0356 14.9375C85.7477 15.2255 85.3571 15.3873 84.9499 15.3873C84.5426 15.3873 84.152 15.2255 83.8641 14.9375C83.5761 14.6495 83.4143 14.259 83.4143 13.8517V4.6373C83.4143 4.23005 83.5761 3.83948 83.8641 3.55152C84.152 3.26355 84.5426 3.10177 84.9499 3.10177C85.3571 3.10177 85.7477 3.26355 86.0356 3.55152C86.3236 3.83948 86.4854 4.23005 86.4854 4.6373V13.8517Z" fill="white"/>
<path d="M68.059 55.3124H28.1339C24.4696 55.3166 20.9566 56.7741 18.3656 59.3651C15.7746 61.9561 14.3171 65.4691 14.3129 69.1334V87.5647H81.88V69.1334C81.8758 65.4691 80.4183 61.9561 77.8273 59.3651C75.2362 56.7741 71.7233 55.3166 68.059 55.3124ZM48.0958 75.2755C46.881 75.2755 45.6935 74.9153 44.6834 74.2404C43.6734 73.5655 42.8861 72.6062 42.4212 71.4839C41.9563 70.3616 41.8347 69.1266 42.0717 67.9351C42.3087 66.7437 42.8937 65.6492 43.7527 64.7903C44.6117 63.9313 45.7061 63.3463 46.8975 63.1093C48.089 62.8723 49.324 62.9939 50.4463 63.4588C51.5686 63.9237 52.5279 64.7109 53.2028 65.721C53.8777 66.7311 54.238 67.9186 54.238 69.1334C54.238 69.94 54.0791 70.7387 53.7704 71.4839C53.4617 72.2291 53.0093 72.9062 52.439 73.4765C51.8686 74.0469 51.1915 74.4993 50.4463 74.808C49.7011 75.1167 48.9024 75.2755 48.0958 75.2755Z" fill="#FF0000"/>
<path d="M91.0932 86.0243H88.0221V79.8822C88.0205 78.6607 87.5345 77.4898 86.6707 76.6262C85.8068 75.7626 84.6357 75.2769 83.4143 75.2756H81.8788V78.3466H83.4143C83.8214 78.347 84.2118 78.5088 84.4997 78.7967C84.7876 79.0846 84.9495 79.475 84.9498 79.8822V86.0243H11.2406V79.8822C11.2409 79.475 11.4028 79.0846 11.6907 78.7967C11.9786 78.5088 12.3689 78.347 12.7761 78.3466H14.3116V75.2756H12.7773C11.5558 75.2769 10.3848 75.7626 9.52095 76.6262C8.65713 77.4898 8.1711 78.6607 8.16949 79.8822V86.0243H5.09842C3.87668 86.0243 2.70497 86.5096 1.84106 87.3736C0.977158 88.2375 0.491821 89.4092 0.491821 90.6309C0.491821 91.8527 0.977158 93.0244 1.84106 93.8883C2.70497 94.7522 3.87668 95.2375 5.09842 95.2375H91.0932C92.3149 95.2375 93.4866 94.7522 94.3505 93.8883C95.2144 93.0244 95.6998 91.8527 95.6998 90.6309C95.6998 89.4092 95.2144 88.2375 94.3505 87.3736C93.4866 86.5096 92.3149 86.0243 91.0932 86.0243ZM91.0932 92.1664H5.09842C4.69117 92.1664 4.3006 92.0047 4.01264 91.7167C3.72467 91.4287 3.56289 91.0382 3.56289 90.6309C3.56289 90.2237 3.72467 89.8331 4.01264 89.5451C4.3006 89.2572 4.69117 89.0954 5.09842 89.0954H91.0932C91.5004 89.0954 91.891 89.2572 92.179 89.5451C92.4669 89.8331 92.6287 90.2237 92.6287 90.6309C92.6287 91.0382 92.4669 91.4287 92.179 91.7167C91.891 92.0047 91.5004 92.1664 91.0932 92.1664Z" fill="white"/>
<path d="M75.7366 72.2044H72.6656V69.1333C72.6639 67.912 72.1781 66.7413 71.3145 65.8777C70.451 65.0142 69.2802 64.5283 68.059 64.5267V61.4556C70.0942 61.4589 72.0452 62.2688 73.4843 63.7079C74.9235 65.1471 75.7334 67.098 75.7366 69.1333V72.2044Z" fill="white"/>
<path d="M55.1877 79.8869L52.8173 75.1461C54.3801 73.9335 55.4357 72.1825 55.7783 70.2343C56.1208 68.2861 55.7259 66.2801 54.6705 64.6071C53.615 62.934 51.9745 61.7138 50.0687 61.1841C48.1628 60.6544 46.128 60.8531 44.3606 61.7415C42.5932 62.6299 41.2198 64.1444 40.5079 65.99C39.796 67.8356 39.7966 69.8801 40.5096 71.7253C41.2226 73.5704 42.597 75.0841 44.3649 75.9714C46.1328 76.8588 48.1678 77.0562 50.0733 76.5254L53.2909 82.958H60.3826V79.8869H55.1877ZM48.0959 73.7448C47.0276 73.7527 45.9893 73.3908 45.1573 72.7206C44.3253 72.0504 43.7507 71.113 43.5309 70.0674C43.3112 69.0219 43.4598 67.9325 43.9516 66.984C44.4434 66.0355 45.2481 65.2863 46.2293 64.8634C47.2104 64.4406 48.3076 64.37 49.3348 64.6638C50.3621 64.9576 51.256 65.5976 51.8652 66.4754C52.4744 67.3531 52.7612 68.4145 52.6771 69.4796C52.5931 70.5447 52.1432 71.5479 51.4038 72.3191L49.4655 68.4437L46.7179 69.8181L48.6501 73.6813C48.4654 73.7106 48.2791 73.7289 48.0923 73.7363L48.0959 73.7448Z" fill="white"/>
<path d="M72.6655 75.2756H75.7366V78.3466H72.6655V75.2756Z" fill="white"/>
<path d="M48.0958 82.9543C44.4315 82.9501 40.9185 81.4926 38.3275 78.9016C35.7365 76.3106 34.279 72.7976 34.2748 69.1333H37.3458C37.3494 71.983 38.483 74.7149 40.498 76.7299C42.513 78.7449 45.2449 79.8785 48.0946 79.882L48.0958 82.9543Z" fill="white"/>
</g>
<defs>
<clipPath id="clip0_20_320">
<rect width="95.208" height="95.208" fill="white" transform="translate(0.491699 0.0307617)"/>
</clipPath>
</defs>
</svg>
