<svg width="38" height="38" viewBox="0 0 38 38" fill="none" xmlns="http://www.w3.org/2000/svg">
<path d="M19.1564 37.9488C16.6562 37.9766 14.1753 37.5092 11.8565 36.5736C9.53784 35.638 7.42733 34.2526 5.64662 32.4974C3.86591 30.7421 2.45013 28.6518 1.48119 26.3468C0.512243 24.0418 0.00922119 21.5678 0.00101943 19.0675C-0.0249311 16.5791 0.444806 14.1104 1.38272 11.8054C2.32064 9.50035 3.70789 7.4051 5.46387 5.64177C7.21986 3.87844 9.3094 2.48231 11.6105 1.53478C13.9116 0.587251 16.3782 0.107277 18.8667 0.122838C21.3626 0.100305 23.8381 0.573728 26.1496 1.51564C28.461 2.45755 30.5625 3.84918 32.3318 5.60976C34.1011 7.37034 35.503 9.4648 36.4563 11.7716C37.4096 14.0784 37.8953 16.5515 37.885 19.0475C37.8789 24.0287 35.9092 28.8067 32.4031 32.3451C28.8971 35.8835 24.1373 37.8969 19.1564 37.9488ZM36.1434 18.9582C36.1579 16.6707 35.7118 14.4037 34.8317 12.2922C33.9517 10.1808 32.6557 8.26806 31.0208 6.66807C29.3859 5.06807 27.4456 3.81353 25.3157 2.97917C23.1857 2.14482 20.9096 1.74773 18.623 1.81156C16.3502 1.8317 14.1045 2.30575 12.0175 3.20588C9.93049 4.106 8.04437 5.41406 6.46992 7.05322C4.89548 8.69239 3.66449 10.6296 2.84912 12.7512C2.03376 14.8727 1.65036 17.1358 1.72174 19.4075C1.76125 21.6861 2.2555 23.934 3.17523 26.0192C4.09495 28.1044 5.42175 29.985 7.07787 31.5506C8.73399 33.1163 10.6861 34.3355 12.8196 35.1367C14.9531 35.938 17.2251 36.3051 19.5024 36.2167C23.9768 36.0715 28.2184 34.1875 31.3259 30.9649C34.4334 27.7422 36.1619 23.435 36.1442 18.9582H36.1434Z" fill="#DDDDDD"/>
<path d="M16.1297 27.1037C14.0348 26.3287 12.3226 24.7717 11.3536 22.7606C10.3846 20.7495 10.2344 18.4411 10.9346 16.3215C11.313 15.1982 11.9175 14.1643 12.711 13.2832C13.5044 12.4022 14.4699 11.6928 15.5481 11.1987C16.6263 10.7046 17.7944 10.4363 18.9803 10.4103C20.1661 10.3843 21.3447 10.6011 22.4435 11.0474C23.5431 11.493 24.5394 12.1598 25.3703 13.0062C26.2012 13.8527 26.849 14.8608 27.2736 15.9679C27.6983 17.075 27.8906 18.2576 27.8387 19.4421C27.7867 20.6266 27.4917 21.7878 26.9718 22.8536C24.8071 27.2694 19.7479 28.5961 16.5895 27.2574C16.9109 26.5707 17.2832 25.9025 17.5395 25.1931C17.7957 24.4837 17.9447 23.715 18.1381 22.9798C18.2076 22.9798 18.2722 22.9613 18.2895 22.9798C19.2743 24.1499 20.6117 24.0129 21.7551 23.5481C22.6809 23.1504 23.4307 22.4305 23.8653 21.5221C24.5303 20.2945 24.728 18.8678 24.4216 17.5059C24.2822 16.7538 23.9451 16.0523 23.4448 15.4734C22.9446 14.8944 22.2992 14.4588 21.5749 14.2112C19.3084 13.3863 17.145 13.5986 15.279 15.2245C14.5007 15.961 13.9888 16.9347 13.8236 17.993C13.6584 19.0513 13.8492 20.1345 14.366 21.0729C14.4846 21.3114 14.6492 21.524 14.8505 21.6986C15.0518 21.8731 15.2857 22.0061 15.5388 22.0898C15.7471 21.5723 15.9699 21.1195 15.6281 20.5602C14.2937 18.3775 15.9273 15.4847 18.4374 15.1383C19.2433 14.9783 20.0796 15.0897 20.8155 15.4549C21.5514 15.8202 22.1453 16.4188 22.5046 17.1572C22.809 17.9508 22.8954 18.8114 22.7547 19.6496C22.6139 20.4878 22.2512 21.2731 21.7043 21.9241C21.3359 22.3304 20.8353 22.5932 20.2914 22.6658C20.0505 22.7096 19.8024 22.6899 19.5714 22.6087C19.3405 22.5275 19.1348 22.3876 18.9744 22.2027C18.814 22.0178 18.7046 21.7944 18.657 21.5544C18.6093 21.3145 18.6251 21.0662 18.7027 20.8342C18.8655 20.2468 19.078 19.6719 19.218 19.0791C19.3065 18.7071 19.3425 18.3246 19.3252 17.9426C19.3226 17.7946 19.2842 17.6495 19.2132 17.5196C19.1423 17.3896 19.041 17.2788 18.9178 17.1965C18.7947 17.1142 18.6535 17.0629 18.5063 17.047C18.359 17.0311 18.2101 17.0511 18.0722 17.1052C17.8666 17.1713 17.6776 17.2805 17.5177 17.4255C17.3578 17.5706 17.2307 17.7481 17.145 17.9462C16.8584 18.5467 16.8182 19.2354 17.033 19.8651C17.1425 20.2311 17.1404 20.6213 17.027 20.9861C16.711 22.2351 16.3912 23.4853 16.1494 24.7493C16.0824 25.3322 16.0667 25.9198 16.1022 26.5055C16.1016 26.6814 16.1177 26.8542 16.1297 27.1037Z" fill="#DDDDDD"/>
</svg>
