<svg width="38" height="38" viewBox="0 0 38 38" fill="none" xmlns="http://www.w3.org/2000/svg">
<path d="M18.6735 37.8717C16.1604 37.8241 13.6817 37.2793 11.3804 36.2686C9.07908 35.2579 7.00079 33.8015 5.26534 31.9833C3.5299 30.1651 2.17178 28.0212 1.26932 25.6754C0.366849 23.3295 -0.0621444 20.8281 0.00725643 18.3156C0.156518 13.4173 2.21038 8.77032 5.73226 5.36263C9.25414 1.95494 13.9662 0.0552703 18.8668 0.0674806C21.3973 0.0404147 23.9072 0.524985 26.2458 1.4921C28.5844 2.45921 30.7036 3.88891 32.4759 5.69538C34.2481 7.50185 35.6371 9.64782 36.5593 12.0045C37.4816 14.3611 37.9182 16.8798 37.8428 19.4094C37.7206 24.3903 35.6395 29.1221 32.0509 32.5784C28.4622 36.0347 23.6554 37.9367 18.6735 37.8717ZM36.1072 18.8378C36.1132 16.5954 35.6766 14.374 34.8227 12.3006C33.9689 10.2272 32.7144 8.34255 31.1312 6.75465C29.548 5.16675 27.6672 3.90675 25.5964 3.04681C23.5255 2.18687 21.3052 1.74387 19.0629 1.7432C14.4856 1.71643 10.0851 3.50895 6.82937 6.72645C3.57363 9.94396 1.72944 14.323 1.70214 18.9002C1.67776 21.1777 2.10915 23.4371 2.97098 25.5454C3.8328 27.6538 5.10751 29.5684 6.72031 31.1767C8.33312 32.7849 10.2514 34.0544 12.3621 34.9103C14.4728 35.7662 16.7333 36.1912 19.0108 36.1605C21.2719 36.1489 23.5086 35.6913 25.5926 34.8139C27.6765 33.9365 29.5669 32.6566 31.1554 31.0474C32.7438 29.4382 33.9991 27.5314 34.8494 25.4363C35.6997 23.3412 36.1283 21.0988 36.1106 18.8378H36.1072Z" fill="#DDDDDD"/>
<path d="M27.114 18.9933C27.114 20.1772 27.1477 21.3629 27.1051 22.5455C27.1047 23.2599 26.9381 23.9644 26.6183 24.6033C26.2985 25.2421 25.8343 25.7978 25.2626 26.2262C24.6849 26.6889 23.9827 26.9694 23.2453 27.0321C21.7581 27.1311 20.2672 27.1963 18.7769 27.2201C17.5943 27.2371 16.4098 27.1888 15.2278 27.1336C14.177 27.0931 13.1689 26.7074 12.3594 26.0363C11.8668 25.64 11.4687 25.1388 11.1941 24.5694C10.9195 23.9999 10.7752 23.3764 10.7718 22.7442C10.7091 20.2586 10.674 17.7675 10.7718 15.2863C10.8746 12.6968 12.4853 11.0943 15.063 10.8448C16.0299 10.7606 17.0005 10.7282 17.9709 10.7477C19.6743 10.7659 21.3777 10.806 23.0792 10.8837C24.1275 10.9878 25.1048 11.4608 25.8369 12.2183C26.5689 12.9759 27.0082 13.9687 27.0764 15.02C27.1346 15.6799 27.1534 16.3442 27.1685 17.0067C27.1835 17.6691 27.1717 18.3328 27.1717 18.9958L27.114 18.9933ZM12.4013 18.9933H12.3618C12.3618 19.5617 12.3568 20.1308 12.3618 20.6986C12.3687 21.2902 12.3832 21.8825 12.3995 22.4741C12.4502 24.2752 13.3571 25.3456 15.1608 25.4503C17.2609 25.5757 19.3703 25.5468 21.4754 25.5581C21.9959 25.5476 22.5148 25.4962 23.0272 25.4046C23.5872 25.348 24.1133 25.1101 24.5256 24.727C24.9379 24.344 25.214 23.8368 25.3116 23.2825C25.4268 22.7743 25.4897 22.2556 25.4995 21.7345C25.5189 19.7917 25.5196 17.8489 25.4914 15.9061C25.4666 15.3873 25.3896 14.8722 25.2614 14.3688C25.1964 14.0161 25.0409 13.6863 24.8102 13.4116C24.5795 13.137 24.2815 12.927 23.9453 12.8021C23.3531 12.5702 22.7278 12.4343 22.0928 12.3997C20.1763 12.3446 18.2572 12.364 16.3395 12.3728C15.8902 12.3776 15.442 12.4181 14.999 12.4937C14.6304 12.5207 14.2707 12.6202 13.9407 12.7866C13.6106 12.953 13.3166 13.183 13.0758 13.4634C12.8349 13.7437 12.6518 14.0689 12.537 14.4203C12.4222 14.7716 12.3781 15.1422 12.407 15.5107C12.3882 16.6689 12.4013 17.8295 12.4013 18.9902V18.9933Z" fill="#DDDDDD"/>
<path d="M18.8705 14.7097C19.4348 14.7038 19.9947 14.8095 20.5179 15.0207C21.0412 15.232 21.5175 15.5447 21.9195 15.9408C22.3214 16.3369 22.6409 16.8086 22.8598 17.3287C23.0787 17.8488 23.1926 18.407 23.1949 18.9713C23.2005 20.0864 22.7648 21.1584 21.983 21.9535C21.2011 22.7486 20.1367 23.2022 19.0217 23.2154C17.8835 23.2281 16.7861 22.7919 15.9673 22.0013C15.1484 21.2107 14.6738 20.1293 14.6465 18.9914C14.6426 17.8646 15.0847 16.782 15.8761 15.9799C16.6674 15.1777 17.7438 14.7211 18.8705 14.7097ZM21.5298 18.9713C21.5425 18.6227 21.4837 18.2751 21.357 17.95C21.2303 17.6249 21.0385 17.3292 20.7932 17.0812C20.5479 16.8331 20.2543 16.6379 19.9307 16.5076C19.6071 16.3773 19.2602 16.3146 18.9114 16.3235C18.5617 16.3253 18.2159 16.3972 17.8945 16.5348C17.5731 16.6724 17.2825 16.873 17.0398 17.1248C16.7972 17.3766 16.6073 17.6744 16.4817 18.0007C16.356 18.327 16.2969 18.6751 16.308 19.0246C16.3046 19.368 16.3707 19.7085 16.5023 20.0257C16.634 20.3428 16.8284 20.6301 17.0739 20.8701C17.3195 21.1102 17.6112 21.2981 17.9312 21.4225C18.2513 21.5469 18.5931 21.6053 18.9363 21.5941C19.6273 21.5886 20.2881 21.3098 20.7741 20.8185C21.26 20.3273 21.5318 19.6636 21.5298 18.9726V18.9713Z" fill="#DDDDDD"/>
<path d="M24.3767 14.6085C24.3799 14.6943 24.3702 14.78 24.348 14.8629C24.2884 15.062 24.1717 15.2394 24.0126 15.3731C23.8957 15.484 23.7549 15.5666 23.601 15.6144C23.4471 15.6622 23.2843 15.674 23.1252 15.6488C22.8802 15.5983 22.659 15.4677 22.4963 15.2777C22.3336 15.0876 22.2388 14.8489 22.2266 14.5991C22.2278 14.456 22.2575 14.3146 22.3141 14.1832C22.3706 14.0517 22.4527 13.9329 22.5558 13.8337C22.6589 13.7344 22.7808 13.6568 22.9143 13.6053C23.0478 13.5538 23.1902 13.5294 23.3332 13.5337C23.5002 13.5478 23.662 13.5992 23.8065 13.6841C23.9695 13.7802 24.1066 13.9146 24.206 14.0757C24.3054 14.2368 24.364 14.4197 24.3767 14.6085Z" fill="#DDDDDD"/>
</svg>
