<svg width="38" height="39" viewBox="0 0 38 39" fill="none" xmlns="http://www.w3.org/2000/svg">
<path d="M37.889 19.2546C37.8602 21.7779 37.3284 24.27 36.3249 26.5854C35.3215 28.9007 33.8666 30.9926 32.0449 32.7389C30.2233 34.4851 28.0716 35.8506 25.716 36.7554C23.3604 37.6602 20.848 38.0862 18.3258 38.0084C13.3352 37.8165 8.61941 35.6732 5.19294 32.0398C1.76647 28.4063 -0.0968609 23.5731 0.00388236 18.5798C0.10927 13.6306 2.15831 8.92169 5.70771 5.47097C9.25711 2.02025 14.0218 0.104958 18.972 0.139121C21.4726 0.14072 23.948 0.637699 26.2554 1.60137C28.5627 2.56504 30.6562 3.9763 32.4151 5.75363C34.174 7.53097 35.5633 9.63917 36.5028 11.9565C37.4423 14.2738 37.9135 16.7542 37.889 19.2546ZM36.1708 19.3006C36.2222 17.0209 35.8165 14.7539 34.9782 12.6333C34.1398 10.5127 32.8856 8.58141 31.2892 6.95315C29.6928 5.32489 27.7866 4.03265 25.683 3.15256C23.5794 2.27247 21.3209 1.82235 19.0407 1.82871C14.5223 1.78125 10.1681 3.52115 6.92679 6.66941C3.68544 9.81768 1.81937 14.1192 1.73519 18.6371C1.67362 20.8977 2.05954 23.1482 2.87062 25.2592C3.6817 27.3703 4.90194 29.3002 6.46135 30.938C8.02076 32.5758 9.88852 33.8893 11.9572 34.8029C14.026 35.7165 16.2548 36.2122 18.5157 36.2616C20.7929 36.324 23.0598 35.933 25.1845 35.1113C27.3092 34.2897 29.2494 33.0538 30.8922 31.4755C32.5349 29.8973 33.8475 28.0081 34.7535 25.918C35.6595 23.8279 36.1409 21.5785 36.1697 19.3006H36.1708Z" fill="#DDDDDD"/>
<path d="M20.2359 17.3048H22.3333C22.3704 17.4388 22.3909 17.5774 22.3945 17.7171C22.3158 18.3416 22.2123 18.9621 22.1355 19.5867C22.1376 19.6391 22.1287 19.6914 22.1097 19.7397C22.0906 19.7881 22.0617 19.8313 22.0251 19.8661C21.9886 19.901 21.9452 19.9267 21.8982 19.9414C21.8512 19.9561 21.8019 19.9593 21.7535 19.951C21.2745 19.9444 20.7956 19.951 20.2464 19.951V25.974C20.025 25.9896 19.8695 26.0083 19.7155 26.0103C19.163 26.0164 18.6111 26.024 18.0586 26.0179C17.5961 26.0129 17.5853 25.9891 17.5838 25.496C17.5791 23.8326 17.5725 22.1692 17.5641 20.5058C17.5641 20.34 17.5386 20.1738 17.5198 19.9424H15.6113V17.3654H17.4825C17.5207 17.2229 17.5487 17.0775 17.5664 16.9304C17.5871 16.3195 17.5721 15.7061 17.6168 15.0977C17.6207 14.4799 17.8056 13.8791 18.1454 13.3803C18.4853 12.8816 18.9626 12.5101 19.5101 12.3186C19.8493 12.2036 20.2028 12.1443 20.5586 12.1428C21.0908 12.1383 21.6235 12.2034 22.1562 12.2403C22.21 12.2356 22.2641 12.2438 22.3146 12.2643C22.365 12.2849 22.4106 12.3172 22.448 12.3591C22.4853 12.4009 22.5134 12.4511 22.5303 12.5061C22.5472 12.5611 22.5525 12.6194 22.5457 12.6769C22.5424 13.1741 22.5405 13.6713 22.55 14.168C22.5556 14.4712 22.4133 14.5752 22.1543 14.5687C21.8717 14.5621 21.5839 14.5535 21.2995 14.5687C21.1602 14.5565 21.0202 14.5763 20.8887 14.6268C20.7572 14.6773 20.6372 14.7574 20.5369 14.8616C20.4365 14.9658 20.3579 15.0918 20.3065 15.2311C20.2551 15.3705 20.232 15.52 20.2388 15.6697C20.2134 16.179 20.2359 16.6939 20.2359 17.3048Z" fill="#DDDDDD"/>
</svg>
