<svg width="38" height="38" viewBox="0 0 38 38" fill="none" xmlns="http://www.w3.org/2000/svg">
<path d="M0 18.822C0.00484388 16.3365 0.500963 13.8764 1.45984 11.5833C2.41871 9.29022 3.82148 7.20927 5.58737 5.46015C7.35326 3.71102 9.44749 2.32823 11.7496 1.39127C14.0518 0.454313 16.5164 -0.0183231 19.0018 0.000543338C24.0033 0.00698027 28.7974 1.99994 32.3295 5.54101C35.8616 9.08208 37.8426 13.8812 37.8364 18.8827C37.7897 23.8405 35.8162 28.5857 32.3335 32.1145C28.8508 35.6433 24.132 37.679 19.1753 37.7909C16.6686 37.8121 14.1825 37.3374 11.86 36.3942C9.53744 35.4509 7.42433 34.0578 5.64221 32.2948C3.86009 30.5319 2.44404 28.434 1.47572 26.1218C0.507405 23.8096 0.00597092 21.3288 0 18.822ZM1.76328 19.0414C1.74051 21.33 2.18376 23.5992 3.06621 25.7109C3.94867 27.8226 5.25186 29.7325 6.89622 31.3244C8.54059 32.9163 10.4918 34.1567 12.631 34.9702C14.7702 35.7837 17.0526 36.1532 19.3392 36.0562C23.8555 35.95 28.1486 34.0708 31.2906 30.8248C34.4326 27.5787 36.1712 23.2267 36.1303 18.7092C36.1249 16.4582 35.6743 14.2304 34.8045 12.1542C33.9347 10.0779 32.6628 8.1942 31.0621 6.61142C29.4615 5.02865 27.5636 3.77808 25.4777 2.9317C23.3918 2.08531 21.1592 1.65983 18.9082 1.67973C16.6407 1.68799 14.397 2.14426 12.3064 3.02234C10.2157 3.90041 8.31899 5.18298 6.72555 6.79633C5.13211 8.40968 3.87316 10.322 3.02111 12.4234C2.16906 14.5249 1.74084 16.7739 1.76074 19.0414H1.76328Z" fill="#DDDDDD"/>
<path d="M11.2754 23.5815C12.7561 23.7964 14.2624 23.4267 15.4757 22.5504C14.8903 22.4265 14.3463 22.1553 13.8949 21.7623C13.4436 21.3693 13.0999 20.8676 12.8963 20.3046H13.7303C12.6462 19.5817 11.8675 18.7071 11.8644 17.2274C12.0854 17.3046 12.2386 17.3625 12.395 17.4105C12.5404 17.4583 12.6923 17.4838 12.8453 17.4861C12.3418 16.9754 12.0176 16.3148 11.9217 15.6038C11.8257 14.8928 11.9631 14.1698 12.3132 13.5437C13.0664 14.4452 13.9832 15.1959 15.0154 15.7561C16.0608 16.3079 17.2132 16.6266 18.3934 16.6902C18.4043 16.5118 18.421 16.3637 18.422 16.2156C18.4005 15.4576 18.6572 14.718 19.1436 14.1365C19.63 13.555 20.3124 13.172 21.0618 13.0597C21.461 12.9826 21.8724 12.9958 22.2659 13.0982C22.6594 13.2006 23.0251 13.3897 23.3362 13.6517C23.4699 13.7803 23.6394 13.8653 23.8223 13.8956C24.0053 13.9259 24.193 13.8999 24.3609 13.8212C24.6523 13.7038 24.9342 13.5656 25.2224 13.4378C25.3407 13.3857 25.4606 13.3335 25.6393 13.2589C25.6362 13.9296 25.1855 14.2806 24.8863 14.7839L26.0203 14.4444C25.9776 14.6009 25.9797 14.7396 25.9114 14.8173C25.6056 15.1773 25.2786 15.5187 24.9321 15.8396C24.8281 15.9251 24.7447 16.033 24.6883 16.1553C24.6319 16.2776 24.6039 16.4111 24.6064 16.5457C24.4417 20.1257 22.8036 22.808 19.5587 24.3476C18.4315 24.8841 17.1981 25.1593 15.95 25.153C14.702 25.1467 13.4712 24.8589 12.3496 24.3111C12.0969 24.2013 11.8502 24.078 11.6105 23.9419C11.5053 23.8829 11.4416 23.7656 11.2754 23.5815Z" fill="#DDDDDD"/>
</svg>
